<svg xmlns="http://www.w3.org/2000/svg" viewBox="0 0 360.39 383.07"><defs><style>.cls-1{fill:#41271b;}.cls-2{fill:#613d19;}.cls-3{fill:#dadbda;}</style></defs><g id="Layer_2" data-name="Layer 2"><g id="Layer_1-2" data-name="Layer 1"><path class="cls-1" d="M70.11,131.11c64.13,5.83,116,32.69,150.5,88.83a88.78,88.78,0,0,1,10.17,25c6.15,24.34-5.95,36.45-30.9,31-12.5-2.71-22.66-9.66-32.89-16.66-33.92-23.21-63.35-52.07-96.35-76.45-13.44-9.93-27-19.53-42.83-25.43-4.51-1.69-9.86-2.75-9.59-8.84.25-5.73,5.6-7,9.91-9C41.41,133.69,55.39,131.28,70.11,131.11Z"/><path class="cls-1" d="M152,320.62C105.35,316.86,61.85,300.25,28.63,262c-17.74-20.41-27-44.56-28.54-71.67-.47-8.2.78-15.28,8.56-19.62,8-4.48,15.53-2.89,22.62,2.37,22.28,16.54,42.41,35.51,62.36,54.7,26,25,53.28,47.83,89.48,56.55,7.85,1.89,15.84,3.32,23.84,4.46,4.71.68,10.13-.12,11.39,6.06,1.21,5.92-3.87,8.32-7.71,10.86C193.71,316.93,174.56,320,152,320.62Z"/><path class="cls-2" d="M150.56,141.67c31.35-50,115.5-83.54,169-68.2,20.4,5.86,25.4,19,13.62,36.71-6.83,10.25-17.08,16.38-27.78,21.92-32.27,16.74-67.11,27.18-100.48,41.21-4.75,2-7.9,1.05-11.48-2.22C180.67,159.45,166.22,150.18,150.56,141.67Z"/><path class="cls-2" d="M360.39,126.52c-.32,17.89-5.71,33.57-14.24,48.21-21.3,36.51-52.72,61.08-91.5,76.83-6.75,2.74-11.57,4.37-13.41-6.53-3-17.62-12-33.12-23.06-47.12-4.79-6.08-3.78-8,3.54-10.17,24.68-7.32,49.45-14.48,72.09-27.31a157.66,157.66,0,0,0,46.34-40c3.82-4.83,5.35-14.41,14-11.83C363.46,111.36,358.87,120.76,360.39,126.52Z"/><path class="cls-1" d="M80.33,122.05c-19.4,1.57-19.66.12-16.13-14.24,4.46-18.11,8.51-36.23,17-53,11.32-22.22,26.33-41,49.52-51.79,4.41-2,9.58-5.66,14.3-.06,4.22,5,.15,9-2,13C126,48.14,123.71,82.43,128.62,117.71c2.16,15.54,1.86,15.47-14.24,11.18C101.56,125.49,88.33,123.62,80.33,122.05Z"/><path class="cls-1" d="M151.45,123.06C147.32,94,145.55,68.11,147,42a45.34,45.34,0,0,1,5.54-19C162.59,4.07,177.68,2,192.28,17.83c12.84,13.88,20.9,30.45,26.61,48.33,1.68,5.26,1.29,8.52-4.51,11.16C191.27,87.87,171.1,102.77,151.45,123.06Z"/><path class="cls-3" d="M23.35,375.79c4.1-1.21,8.42-1,12.51-1.33,13-1.18,26.15-1.52,39.22-2.25,56-3.1,112.09-2.12,168.14-1.82,21.37.12,42.74,1.77,64.1,2.92A238.82,238.82,0,0,1,337,376.66c-4.37.49-8.74,1.25-13.13,1.41-15.92.59-31.78,1.92-47.72,2.34-14.24.38-28.48,1.48-42.75,1.73-21.77.38-43.56,1.23-65.33.82-19.61-.37-39.23-.42-58.84-.95-18.88-.52-37.74-1.83-56.61-2.91-9.09-.52-18.16-1.3-27.24-2C24.67,377.07,23.71,377.3,23.35,375.79Z"/></g></g></svg>