<svg xmlns="http://www.w3.org/2000/svg" viewBox="0 0 366.27 375.08"><defs><style>.cls-1{fill:#fdfdfd;}.cls-2{fill:#ddd;}.cls-3{fill:#efeded;}.cls-4{fill:#928071;}.cls-5{fill:#c6c5c4;}.cls-6{fill:#d9a16b;}.cls-7{fill:#9e6240;}.cls-8{fill:#d3d3d3;}.cls-9{fill:#b4b4b3;}.cls-10{fill:#efd7c1;}.cls-11{fill:#c69167;}.cls-12{fill:#c78c56;}.cls-13{fill:#e0b487;}.cls-14{fill:#e9c6a5;}</style></defs><g id="Layer_2" data-name="Layer 2"><g id="Layer_1-2" data-name="Layer 1"><g id="Group_1" data-name="Group 1"><path id="Path_1" data-name="Path 1" class="cls-1" d="M21.25,282.08a35,35,0,0,0-5-8.89c-2.43-7-6.15-13.52-8.58-20.59a143.92,143.92,0,0,1-6.8-30.26,139.06,139.06,0,0,1,5.26-56.15,102.3,102.3,0,0,1,11-25.87,27.64,27.64,0,0,0,3.39-19.17A75.13,75.13,0,0,1,22.41,95,107.42,107.42,0,0,1,53.34,42,145.62,145.62,0,0,1,112.68,7.8a178,178,0,0,1,60-7.63A167.19,167.19,0,0,1,247.88,20.5a130.87,130.87,0,0,1,45.35,40.6,93.69,93.69,0,0,1,14.62,33.3,105.92,105.92,0,0,1,2.48,15.12,8.29,8.29,0,0,0,2.08,4.56,165.74,165.74,0,0,1,21.49,34.36,8.94,8.94,0,0,1,1.19,3.43c-4.21,1.07-8.1.35-8.71-2-1.88-7.17-7-12.53-10.24-19a49.36,49.36,0,0,0-4.79-6.69c-1.3,1.11-.89,2.35-1.28,3.34a13.4,13.4,0,0,0,1.29,13.2,43.59,43.59,0,0,1,3.81,8.23c.81,2,.4,3.92-2,4.11-4.47.34-7.7,4.7-12.54,3.72-.18,0-.57.45-.7.77a46.83,46.83,0,0,0-4.17,8.86c-2.43,2.17-3.3,5.36-5.24,7.87a130.72,130.72,0,0,1-41.07,35.55,162.32,162.32,0,0,1-35,14.51,197,197,0,0,1-37,6.2,181.65,181.65,0,0,1-70.93-9.09A189.16,189.16,0,0,1,76.53,207a142.54,142.54,0,0,1-28.44-23.31c-3.49-3.75-6.16-8.15-10-11.6a13,13,0,0,0-1-2.33,92.45,92.45,0,0,1-8.57-15.29,57.17,57.17,0,0,0-5.12-11.57,143.31,143.31,0,0,0-8.63,19.82A119.93,119.93,0,0,0,7.3,201a141,141,0,0,0,1.94,29.52,128.41,128.41,0,0,0,13.45,39.61,150.71,150.71,0,0,0,19.47,28.17A163.16,163.16,0,0,0,77,328.17c6.57,4.08,12.69,9.18,20.56,10.88.27.4.45,1,.81,1.14,9.57,3.2,18.73,7.62,28.63,9.88a219.7,219.7,0,0,0,36.07,5.35,227.48,227.48,0,0,0,31.76-.54,170.56,170.56,0,0,0,33.61-7.6A158.8,158.8,0,0,0,271,327.59a176.11,176.11,0,0,0,27.32-22.3,184.34,184.34,0,0,0,19.1-23.87,106.16,106.16,0,0,0,9.39-17.2,143.93,143.93,0,0,0,7.41-20.42,96.3,96.3,0,0,0,4.75-29c1.79-2.75,5-3.35,7.53-5a195.31,195.31,0,0,1-1.62,19.78c-.22.95-.48,1.89-.66,2.85a144.29,144.29,0,0,1-16.6,45.23c-20.05,35-49.69,58.7-87.16,72.68a188.59,188.59,0,0,1-123.07,4,171,171,0,0,1-81.87-53.21C30.34,295.05,26.18,288.27,21.25,282.08ZM264.6,38.32c0-.81-.52-.94-1.15-1a66.28,66.28,0,0,0-11.28-8.73C214.75,5.7,174.32-.48,131.61,7.67,101.46,13.43,74.92,26.59,53.7,49.22c-32.47,34.65-35.84,82.22-8.56,119.83,16.1,22.21,38,36.57,63.53,45.78a173,173,0,0,0,75.11,8.82,125.88,125.88,0,0,0,39.94-10.16,7.27,7.27,0,0,0,4.54-1.11,131.29,131.29,0,0,0,53-38.13c21-25.91,27.91-54.92,18.05-87.2-5.77-18.91-17.4-34-32-47-.7-.63-1.34-1.48-2.51-1.16a1.07,1.07,0,0,0-.23-.56Z"/><path id="Path_2" data-name="Path 2" class="cls-2" d="M366.26,181.93c-.19,13.4-7.32,22-19.05,27.33a1.61,1.61,0,0,1,0-2.28l0,0a13,13,0,0,0,2-10.4c-.54-3.46.23-7.78-4.32-9.52a8,8,0,0,0-6.6-3.66,33.11,33.11,0,0,0-13.73-2.85c-1.83-.11-4-.73-5.32,1.38a20.83,20.83,0,0,0-15.67,5.31c-2.9,2.44-5.29,5.92-9.9,5l-2.33-1.47a9.78,9.78,0,0,1-.7-5.18c1,0,2-.21,2.38-1.29a18.32,18.32,0,0,1,6.45-8A38.78,38.78,0,0,1,324,166.63c7.19-.19,14.44-.89,21.68,1.18a40.78,40.78,0,0,1,15.08,6.8,8.93,8.93,0,0,0,4.12,2.22A8.24,8.24,0,0,1,366.26,181.93Z"/><path id="Path_3" data-name="Path 3" class="cls-3" d="M364.83,176.84a8.88,8.88,0,0,1-4.11-2.21,40.92,40.92,0,0,0-15.09-6.81c-7.24-2.06-14.48-1.36-21.68-1.17a38.77,38.77,0,0,0-24.47,9.61,18.38,18.38,0,0,0-6.45,8c-.35,1.08-1.33,1.33-2.38,1.3a148,148,0,0,1,5.24-17.1,1.63,1.63,0,0,0-.15-2,46.83,46.83,0,0,1,4.17-8.86c.13-.32.52-.81.7-.77,4.84,1,8.07-3.38,12.55-3.72,2.43-.19,2.85-2.11,2-4.11a44.26,44.26,0,0,0-3.82-8.23,13.4,13.4,0,0,1-1.29-13.2c.39-1,0-2.23,1.28-3.34a49.36,49.36,0,0,1,4.79,6.69c3.2,6.44,8.36,11.8,10.24,19,.6,2.31,4.5,3,8.71,2,5.47,1.52,11.31,1.76,16.26,5.06C358.58,161.74,364.6,167.32,364.83,176.84Z"/><path id="Path_4" data-name="Path 4" class="cls-4" d="M21.25,282.07c4.93,6.21,9.09,13,14.27,19a171,171,0,0,0,81.87,53.21,188.52,188.52,0,0,0,123.07-4c37.47-14,67.11-37.71,87.16-72.67a144.29,144.29,0,0,0,16.6-45.23c.19-1,.44-1.9.67-2.85a15.89,15.89,0,0,1,1.35,7.1,105.09,105.09,0,0,1-10.06,54.77,127.75,127.75,0,0,1-30,38.86,155.46,155.46,0,0,1-36.88,24.88,203.43,203.43,0,0,1-62.91,18.34A210.93,210.93,0,0,1,104.69,360.8a168.83,168.83,0,0,1-45.84-26.94A122.11,122.11,0,0,1,25,291.18,30.49,30.49,0,0,1,21.25,282.07Z"/><path id="Path_5" data-name="Path 5" class="cls-5" d="M344.9,187c4.55,1.73,3.78,6.06,4.32,9.51a13.07,13.07,0,0,1-2,10.41,1.61,1.61,0,0,0,0,2.28l0,0-.69.55c-2.5,1.69-5.74,2.29-7.52,5-6.16.9-11.94,3.46-18.16,4.15-4.46.48-8.89,1.18-13.33,1.81-7.53,0-15,1-22.47,1.67-4.55-1-9,1.19-13.52.53,3.59-6.15,8.49-11.41,11.85-17.75.79-1.49,1.62-3.57,3.66-4.25l6.36-1.4a145.82,145.82,0,0,0,23.68-3.7,86.75,86.75,0,0,0,22-5.14C341.46,190.25,343.86,189.71,344.9,187Z"/><path id="Path_6" data-name="Path 6" class="cls-3" d="M307.5,220.81c4.44-.62,8.88-1.33,13.33-1.82,6.22-.68,12-3.26,18.16-4.14a96.25,96.25,0,0,1-4.76,29,142.71,142.71,0,0,1-7.41,20.42,106.63,106.63,0,0,1-9.38,17.21,184.32,184.32,0,0,1-19.11,23.86A175.57,175.57,0,0,1,271,327.59a158.69,158.69,0,0,1-42.56,19.69,169.59,169.59,0,0,1-33.6,7.6,227.48,227.48,0,0,1-31.76.55A220.63,220.63,0,0,1,127,350.07c-9.92-2.26-19.06-6.67-28.64-9.87-.35-.12-.54-.75-.8-1.14-4.58-6.58-10.41-12.13-14.9-18.83A153.21,153.21,0,0,1,68.1,295.06a255.68,255.68,0,0,1-9.26-25.23,185.84,185.84,0,0,1-5.06-24.14c-1.78-10.94-1-22.16-1-33.27,0-1.3-.32-2.8,1.47-3.33a59,59,0,0,1,6.61,10.16,38.56,38.56,0,0,0,.66,7.27,75.22,75.22,0,0,0,12,34A80.45,80.45,0,0,0,93.3,281.88a102.26,102.26,0,0,0,23,13.13,116.58,116.58,0,0,0,39.29,8.89c7.32.34,14.57.36,21.88,0a150,150,0,0,0,33.37-5.84,167.1,167.1,0,0,0,68.69-39.81A129.42,129.42,0,0,0,307.5,220.81Z"/><path id="Path_7" data-name="Path 7" class="cls-6" d="M264.84,38.86c1.17-.34,1.81.53,2.52,1.16,14.54,13,26.17,28.11,31.95,47,9.85,32.28,2.91,61.29-18.05,87.2a131.32,131.32,0,0,1-53,38.13,7.26,7.26,0,0,1-4.54,1.11c.24-1.62,1.79-1.78,2.84-2.5A35.89,35.89,0,0,0,237,202.5a13.12,13.12,0,0,1,4.43-3.68,6.38,6.38,0,0,0,5.3-1.84c1.48-1.3,3-3.74,4-3.91a11.35,11.35,0,0,0,5.87-2.86,83.16,83.16,0,0,0,8.85-8c2.72-3.17,6.73-5.48,7.88-10.08a3.19,3.19,0,0,0-3.15,1.34,26.43,26.43,0,0,1-9.19,7.5c-4.24,2.57-7.91,6.12-12.79,7.65.16-1.23.32-2.45.47-3.67A67.32,67.32,0,0,0,268,164a59.74,59.74,0,0,0,8.62-33.79,31.13,31.13,0,0,0-3.77-13.53,2,2,0,0,0-.56,1.42A63.32,63.32,0,0,1,264,154.24a45.76,45.76,0,0,1-8.76,12.32c.09-2.56.27-5.11.25-7.67s.23-5.42-2.19-7.38c-.06-.57-.13-1.13-.2-1.7a8.25,8.25,0,0,0,1.38-2.52c.87-6.38,1.91-12.76,2.33-19.18a82.53,82.53,0,0,0-8.59-42.68,27,27,0,0,0-9.06-10.92c.75,2.33,2.08,4.33,2.92,6.52a98.7,98.7,0,0,1,7.23,26.56,135.18,135.18,0,0,1,0,24.72c-.54,5.83-2.56,11.37-2.62,17.24l-1.4,1.13a9.8,9.8,0,0,0-4,2.41c-2.42,1.75-4.19,4.36-7.13,5.43,1.37-3,2.71-5.94,4.12-8.87a56.78,56.78,0,0,0,4.54-14.84,106,106,0,0,0,1-24.72c-1.06-18-6.23-34.11-18.11-47.84-12.55-14.5-28-22.45-47.63-22a33.69,33.69,0,0,0-32.53,26.88c-.2,1-.82,2.14.82,2.8,2.06-2.88,1.81-6.6,3.51-9.52A27.65,27.65,0,0,1,165.3,47.72c14-4.91,27.21-2.28,39.39,4.51,17.25,9.61,26.14,25.76,30.55,44.41a80.9,80.9,0,0,1-.76,39.8,65.59,65.59,0,0,1-17,30.22,51.26,51.26,0,0,1-21.49,13.85c-5.33,1.24-10.64,2.58-16,3.68s-10.48,1.92-15.72,2.86a120,120,0,0,0-14.38,3.13,1.89,1.89,0,0,0-1.53,2.14l0,0c-1.12-.13-2.23-.25-1.41,1.48-1.09,1.46-2.25,2.87-3.27,4.37-2.47,3.67-2.93,3.76-5.27,0A32,32,0,0,0,126.76,186c-4.05-2.18-8-4.53-12-6.8,7,1.1,12.79,5.06,19.41,8.67-.68-2.6-3.27-3.57-2.81-5.9,5,2.91,6.52,8.41,9.64,13.19a28.53,28.53,0,0,1,4.6-7.23,57,57,0,0,1,16.88-10.75c9.94-4.66,20.27-8.45,29.94-13.67,13.64-7.34,24.73-17,28.52-32.87.07-.07.19-.15.19-.22a4.71,4.71,0,0,0-.12-.54c0-.6.07-1.2.11-1.81a57.32,57.32,0,0,0,2.45-19,41.55,41.55,0,0,0-10.09-26.25A42.53,42.53,0,0,0,195.65,70c-11.39-3.86-22.9-4.07-33,4.31-1.6,1.32-4.3,1.28-4.86,3.93l-.77,1,0,0c-3.95,2.79-4.76,7.69-7.52,11.76-.94-1.43-1.74-2.48-2.38-3.63-2.77-5-5.35-10.11-8.3-15A26.65,26.65,0,0,0,127,60.81,8.39,8.39,0,0,0,121.7,59l-2.08-.14a28.82,28.82,0,0,0-13.32,1.27c-2.49-.15-4.32,1.53-6.41,2.4C80.3,70.68,69.42,86.21,69.66,107.88A101.34,101.34,0,0,0,74.72,135c-1.57-.43-1.81-1.82-2.27-3.08a87.74,87.74,0,0,1-6.14-23.56,56,56,0,0,1,4.18-28.13A47.36,47.36,0,0,1,96.79,55.2C109.74,50,122.48,49.92,134.12,59c.94.73,1.71,1.8,3.09,1.78l.76,1.45-.46.45.3.18.15-.64c4.83,3.5,4.84,3.5,5.75-2.8,0-.36,0-.73.09-1.09,2.77-17.19,12-29,28.67-34.77a66.33,66.33,0,0,1,32.93-2.28c18.18,3,34.52,9.65,46.25,24.88a20.33,20.33,0,0,0,10.88,8.32c1.56.4,3.14,1,4.2-.89l1.75-.17a6.86,6.86,0,0,0,1.37,3.29c2,3.32,5.53,5.25,7.55,8.38,5,7.71,11.05,14.81,14,23.73.19.59.46,1.18,1.24,1s.83-.9.73-1.49a52.87,52.87,0,0,0-1.13-5.71,76.07,76.07,0,0,0-14.67-27.36c-2.31-2.82-4.08-6.8-8.33-7.76l-3.4-5.76A4.06,4.06,0,0,1,264.84,38.86Zm17.22,101.7a42.19,42.19,0,0,0,7.1-17.72,47.66,47.66,0,0,0-3-25.41,49.49,49.49,0,0,0-17.61-24.06c-.53-.39-1-.78-1.59-.35a1,1,0,0,0-.26,1.45l.16.18c2.18,1.82,2.63,4.61,4,6.89A78.26,78.26,0,0,1,282.63,122c0,6.17-1.16,12.28-.56,18.55Zm-131.6,47.49a19.36,19.36,0,0,0,7.07-1.63c10.13-2.53,20.6-3.31,30.51-7.16,12.74-4.94,22.94-12.44,29.38-24.65a15.06,15.06,0,0,0,3-7.19,24.32,24.32,0,0,0-5.39,5.92,63.79,63.79,0,0,1-26.3,19.78c-8.92,3.27-18.1,5.72-27,9-3.79,1.4-8.31,1.83-11.28,5.93Zm58-153.27a24.07,24.07,0,0,0-13.72-6.86,47,47,0,0,0-33.34,6.28A32.32,32.32,0,0,0,148,48.86c-.41.86-1,2,.12,2.6.94.53,1.46-.57,2-1.17A51,51,0,0,1,170,37a74.13,74.13,0,0,1,25.49-4,93,93,0,0,1,13,1.7Zm49.36,51.07a45.66,45.66,0,0,0-20.87-37.5c-8.65-6.07-23.13-9.33-28.83-6.17A65.62,65.62,0,0,1,238.21,58c8.73,7.84,14.09,17.78,19.57,27.85ZM135.86,189.67c-.16-.17-.34-.55-.62-.65s-.7.19-.58.6a1.33,1.33,0,0,0,.66.74c.42.17.64-.11.54-.68Z"/><path id="Path_8" data-name="Path 8" class="cls-7" d="M237,202.5A36.06,36.06,0,0,1,226.56,211c-1,.7-2.59.88-2.83,2.5a125.88,125.88,0,0,1-39.94,10.16,173,173,0,0,1-75.11-8.83c-25.5-9.19-47.43-23.56-63.54-45.77C17.87,131.43,21.24,83.86,53.71,49.2c21.21-22.64,47.75-35.8,77.91-41.55,42.71-8.16,83.14-2,120.56,20.93a66.17,66.17,0,0,1,11.28,8.73,1.24,1.24,0,0,0,1.15,1,1,1,0,0,1,.24.55,4,4,0,0,0,1,2.88c-3,.19-3.79-2.78-5.79-4.06a212.33,212.33,0,0,0-18.34-11.25,66.6,66.6,0,0,0-23.67-7.81c.59.7.77,1.06,1,1.19a165.5,165.5,0,0,1,24.06,14.34,162.74,162.74,0,0,1,23.58,19.45c-1.06,1.87-2.64,1.29-4.19.89a20.36,20.36,0,0,1-10.88-8.33C240,30.92,223.62,24.27,205.45,21.28a66.33,66.33,0,0,0-32.93,2.27c-16.7,5.78-25.9,17.59-28.67,34.77-.06.36,0,.74-.1,1.1-.91,6.29-.91,6.29-5.75,2.79h0l-.76-1.44a6.52,6.52,0,0,0-2.53-4.68c-9.17-10-21.22-11.81-33.39-9.58C79,50.61,64.73,64.73,58.7,86.42c-5.39,19.38-.92,37.64,8.84,54.77a84.79,84.79,0,0,0,18.14,20.43,87.13,87.13,0,0,0,27.37,17.29l1.63.15.12,0c4,2.27,8,4.62,12,6.79a32.08,32.08,0,0,1,11.59,12.27c2.34,3.74,2.79,3.65,5.27,0,1-1.51,2.18-2.92,3.27-4.37a1.9,1.9,0,0,0,1.41-1.49l0,0a43.68,43.68,0,0,1,12.46-2.3c8.62-.65,17.24-.8,25.82-2.12a70.57,70.57,0,0,0,31.82-12.92c6.11-4.5,10.47-10.47,15.54-15.85a4.84,4.84,0,0,0,.19-.65l0,0c2.94-1.07,4.71-3.68,7.14-5.43a9.73,9.73,0,0,1,4-2.41,59.08,59.08,0,0,1-20.48,32c-2.86,2.42-6,4.53-9.26,7,.74.16,1,.3,1.19.24a54.94,54.94,0,0,0,28.38-22.52c3.36-5,5.33-10.63,8.21-15.82,2.42,2,2.17,4.74,2.19,7.38s-.16,5.11-.25,7.67a16.4,16.4,0,0,1-1.64,2.8,82.25,82.25,0,0,1-27.86,20.9L213,196a56.45,56.45,0,0,0,35.76-11.15l-.47,3.67L244.9,192a33.36,33.36,0,0,0-5,1,173.94,173.94,0,0,1-21.34,7.68A190.84,190.84,0,0,1,158.09,207a140.88,140.88,0,0,1-40-8.29,113.89,113.89,0,0,1-62.61-55.56,77.52,77.52,0,0,1-8.24-49A92.36,92.36,0,0,1,65.84,52.45,12.85,12.85,0,0,0,69,47.62l.23-.2-.15-.15-.2.23a6,6,0,0,0-1.63.73C43.07,69.34,33.05,95.85,38.46,127.52a102.4,102.4,0,0,0,27.61,53.21,125.25,125.25,0,0,0,52.6,33.18c22.74,7.62,46.1,7.69,69.49,4.29a127.47,127.47,0,0,0,30.76-7.8c5.42-2.26,11.66-3.06,15.79-8C235.39,201.68,236.24,202.13,237,202.5Z"/><path id="Path_9" data-name="Path 9" class="cls-2" d="M54.29,209.08c-1.78.53-1.46,2-1.47,3.33-.08,11.11-.82,22.33,1,33.27a183.67,183.67,0,0,0,5.05,24.13A253.83,253.83,0,0,0,68.1,295a152.39,152.39,0,0,0,14.59,25.17c4.48,6.7,10.32,12.26,14.9,18.83-7.87-1.69-14-6.8-20.56-10.88a163.33,163.33,0,0,1-34.84-29.92,151.47,151.47,0,0,1-19.46-28.17A128.41,128.41,0,0,1,9.28,230.46a141,141,0,0,1-1.94-29.52,119.82,119.82,0,0,1,7.5-38.19,142.78,142.78,0,0,1,8.63-19.82,56.69,56.69,0,0,1,5.12,11.57,93.09,93.09,0,0,0,8.57,15.28,13.44,13.44,0,0,1,1,2.34c-.51,2.42,1.47,4,2,6.11C42.86,189.43,48.63,199.23,54.29,209.08Z"/><path id="Path_10" data-name="Path 10" class="cls-8" d="M287,201c-2,.68-2.87,2.75-3.65,4.24-3.36,6.35-8.26,11.6-11.85,17.76-4.61,3.81-8.18,8.62-12.58,12.68a124.21,124.21,0,0,1-57.13,31.38c-4.06-1.44-8.16-.16-12.22-.3a114.1,114.1,0,0,1-32.79-6A97.76,97.76,0,0,1,113,231a27.55,27.55,0,0,1-6.6-9.51,181.63,181.63,0,0,0,70.93,9.09,197.72,197.72,0,0,0,37-6.21,162.11,162.11,0,0,0,35-14.51,130.73,130.73,0,0,0,41.08-35.54c1.93-2.52,2.81-5.71,5.24-7.87a1.63,1.63,0,0,1,.15,2,147.37,147.37,0,0,0-5.24,17.1,9.75,9.75,0,0,0,.7,5.17C289.34,193.93,286.93,196.92,287,201Z"/><path id="Path_11" data-name="Path 11" class="cls-5" d="M106.42,221.5A27.73,27.73,0,0,0,113,231a98,98,0,0,0,43.78,29.71,114.16,114.16,0,0,0,32.79,6c4.06.13,8.16-1.15,12.22.29a11,11,0,0,1-4.69,1.9,126,126,0,0,1-23,3.25c-7.55.53-15-1-22.58-.7a26.89,26.89,0,0,1-6.76-1.43,131.11,131.11,0,0,1-74.34-40.72c-3.15-3.38-6.33-6.75-9.5-10.11A59.6,59.6,0,0,0,54.3,209.1c-5.66-9.85-11.43-19.63-14.17-30.85-.5-2.08-2.48-3.69-2-6.11,3.8,3.44,6.47,7.84,10,11.59a142.25,142.25,0,0,0,28.44,23.32A188.91,188.91,0,0,0,106.42,221.5Z"/><path id="Path_12" data-name="Path 12" class="cls-6" d="M264.6,38.31a1.24,1.24,0,0,1-1.15-1C264.08,37.37,264.63,37.5,264.6,38.31Z"/><path id="Path_13" data-name="Path 13" class="cls-1" d="M317.07,195.9a145.88,145.88,0,0,1-23.67,3.7q.14-3.69.29-7.39c4.61.92,7-2.56,9.91-5a20.86,20.86,0,0,1,15.67-5.3C316.79,186.3,318.06,191.28,317.07,195.9Z"/><path id="Path_14" data-name="Path 14" class="cls-3" d="M317.06,195.91c1-4.63-.27-9.6,2.2-14,1.33-2.11,3.48-1.49,5.32-1.38a33.1,33.1,0,0,1,13.72,2.85,15.48,15.48,0,0,0,.76,7.39A86.65,86.65,0,0,1,317.06,195.91Z"/><path id="Path_15" data-name="Path 15" class="cls-9" d="M293.67,192.22c-.09,2.46-.19,4.93-.29,7.39L287,201c-.1-4.07,2.32-7.08,4.33-10.26Z"/><path id="Path_16" data-name="Path 16" class="cls-1" d="M339.06,190.76a15.35,15.35,0,0,1-.76-7.39,7.93,7.93,0,0,1,6.6,3.67C343.86,189.7,341.47,190.24,339.06,190.76Z"/><path id="Path_17" data-name="Path 17" class="cls-1" d="M60.91,219.24c3.16,3.38,6.34,6.74,9.49,10.11a131.07,131.07,0,0,0,74.34,40.71,26.56,26.56,0,0,0,6.76,1.44,6.35,6.35,0,0,0,3.5,1.86,112.45,112.45,0,0,0,52.83,3.52,108.55,108.55,0,0,0,57-27.32A78.79,78.79,0,0,0,285,222.46c7.48-.63,14.94-1.64,22.47-1.67a129.52,129.52,0,0,1-28,37.44A166.85,166.85,0,0,1,210.86,298a150.62,150.62,0,0,1-33.37,5.85c-7.32.35-14.57.34-21.88,0a116.3,116.3,0,0,1-39.28-8.9,101.91,101.91,0,0,1-23-13.12,80.45,80.45,0,0,1-19.69-21.31A75.22,75.22,0,0,1,61.54,226.5,38.35,38.35,0,0,1,60.91,219.24Z"/><path id="Path_18" data-name="Path 18" class="cls-9" d="M285,222.47a78.44,78.44,0,0,1-20.22,27.1,108.48,108.48,0,0,1-57,27.32A112.42,112.42,0,0,1,155,273.37a6.4,6.4,0,0,1-3.5-1.85c7.54-.27,15,1.22,22.58.69a126,126,0,0,0,23-3.25,11,11,0,0,0,4.69-1.9,124.1,124.1,0,0,0,57.13-31.37c4.4-4.06,8-8.88,12.57-12.68C276.05,223.65,280.48,221.5,285,222.47Z"/><path id="Path_19" data-name="Path 19" class="cls-10" d="M221,130.57c-3.79,15.91-14.89,25.52-28.52,32.87-9.67,5.21-20,9-29.94,13.66a57.27,57.27,0,0,0-16.89,10.76,28.32,28.32,0,0,0-4.59,7.23c-3.12-4.78-4.66-10.28-9.64-13.19h0c-.45-1.83-2-2.65-3.31-3.73-5.52-4.5-12.26-6.93-18.17-10.76l.17-1c2.76.11,5.05,2.85,8.9,1.45a90.09,90.09,0,0,1-11.33-7,66.86,66.86,0,0,1-22.28-23.73,60.44,60.44,0,0,1-7.2-24.32c-1.11-11.58.46-22.46,7.29-32A42.93,42.93,0,0,1,119.9,62.29c1.28-.06,2.81.39,3.33-1.44l3.75-.07a26.72,26.72,0,0,1,11.86,11.49c2.94,4.9,5.52,10,8.3,15,.63,1.15,1.43,2.2,2.38,3.63,2.75-4.08,3.56-9,7.51-11.76a10.28,10.28,0,0,1-1.29,4.14,19,19,0,0,0-1.33,10.64c1.57-.76,1.59-2,1.85-3.19a20.24,20.24,0,0,1,16-15.83c19.32-4.81,40.6,10.14,45.08,28.71A65.85,65.85,0,0,1,218,129c-.16,1.06-1.23,2.9.1,3.27,1.81.5.91-1.76,1.57-2.6.45-.57,1-1.08,1.44-1.62,0,.59-.07,1.2-.11,1.8C221,130.06,221,130.31,221,130.57Zm-72-22c.12.44.14,1,.77,1a.33.33,0,0,0,.23-.23c0-.63-.53-.66-1-.77-.68-4.44-6.22-6.89-11.33-4.76a13.44,13.44,0,0,0-9.1,10.53,14.6,14.6,0,0,0,5.6,13.53c3.5,3,8.23,4.16,11.39,7.68.38.43,1,.89,1.53.21a1.63,1.63,0,0,0,0-1.35c-.29-.79-.59-1.83-1.2-2.21-3.35-2-4.81-5.56-7.05-8.43a9.47,9.47,0,0,1,4.3-14.77,19.16,19.16,0,0,1,5.8-.4ZM135.74,77.81a12.79,12.79,0,0,0-12-8.75c-19-1.68-34.49,7.75-40.26,26.42A43.44,43.44,0,0,0,85.81,129a86,86,0,0,0,25.27,28.28,213.89,213.89,0,0,1,18.24,13.94,57.37,57.37,0,0,0,8.76,6.67,13.39,13.39,0,0,0-2.4-5.24c-5-7-12.11-11.82-18.19-17.68-5-4.85-9.81-9.92-14.36-15.1A49.77,49.77,0,0,1,91.07,115.6a35.19,35.19,0,0,1,9.74-32.52c8.65-8.68,22.8-13.63,34.93-5.27Zm8.59,102.35c3.18-.41,4.59-2.49,6.5-3.57,10.34-5.89,22.23-7.87,32.67-13.53,10.79-5.84,20.15-12.56,25-24.56a57.91,57.91,0,0,0,4.26-29.19,56.1,56.1,0,0,0-5.65-18,25.54,25.54,0,0,0-15.88-12.55,21.62,21.62,0,0,0-17.1,1c-.61.34-1.63.49-1.37,1.4.38,1.32,1.44.5,2.14.34a17.46,17.46,0,0,1,9.4-.3c12.68,4,17.73,14,19.51,26a53.1,53.1,0,0,1,.29,15.26,45.46,45.46,0,0,1-17,29.29c-9.3,7.73-20.86,11.8-31.19,17.88a26.63,26.63,0,0,0-11.62,10.59ZM193,116.56v-2.2a20.31,20.31,0,0,0-13.51-19.69,15,15,0,0,0-14.28,1.78c-.63.49-1.6,1.09-.87,2,.51.68,1.29.2,2-.07A13.6,13.6,0,0,1,181.87,104a23.35,23.35,0,0,1-.81,23.34c-4.65,8.46-12.54,13.78-20.38,19-6.54,4.35-13.36,8.37-18,15-.48.69-1.4,1.4-.73,2.21.84,1,1.46-.18,2.08-.6a124.71,124.71,0,0,1,17.71-9.44,64.24,64.24,0,0,0,23.05-15.79A32.11,32.11,0,0,0,193,116.56ZM144,91.84a1.57,1.57,0,0,0-.11-2.14,23.29,23.29,0,0,0-11.54-7.32C121.1,78.48,107.6,86.52,104,98c-3.22,10.29.14,19.17,5,27.76,3,5.33,7.92,9.19,12.17,13.54,5.06,5.15,11.82,8.86,14.12,16.39a1.37,1.37,0,0,0,1.07.74c.79-.06.74-.83.79-1.42a16,16,0,0,0-3.25-8.8c-4.69-8.75-12.1-15.54-17.39-23.87a28,28,0,0,1-4.91-18.11,18.07,18.07,0,0,1,9.31-14.81c8.15-4.39,15.81-2.21,23.06,2.44Zm5,48.47c4.76,1.57,8.33-.79,11.3-2.38a20.44,20.44,0,0,0,8.53-27.62,20.21,20.21,0,0,0-1.34-2.18,9.85,9.85,0,0,0-12.81-3.3c-.89.6-2,1.39-1.75,2.58.34,1.52,1.6.51,2.44.45a8.19,8.19,0,0,1,9,7.3,2.34,2.34,0,0,1,0,.38A19.67,19.67,0,0,1,156,135.48Z"/><path id="Path_20" data-name="Path 20" class="cls-11" d="M69,47.66a12.87,12.87,0,0,1-3.19,4.83A92.38,92.38,0,0,0,47.24,94.2a77.58,77.58,0,0,0,8.24,49,113.86,113.86,0,0,0,62.61,55.56,140.88,140.88,0,0,0,40,8.29,190.87,190.87,0,0,0,60.51-6.27,172.3,172.3,0,0,0,21.34-7.68,33.36,33.36,0,0,1,5-1c.14,2.91-3.06,4.13-3.41,6.79a13.17,13.17,0,0,0-4.43,3.69c-.78-.38-1.65-.84-2.35,0-4.13,4.88-10.36,5.69-15.78,7.94a127.22,127.22,0,0,1-30.77,7.81c-23.39,3.39-46.74,3.32-69.48-4.29a125.32,125.32,0,0,1-52.6-33.18,102.49,102.49,0,0,1-27.62-53.21C33,95.9,43,69.4,67.26,48.28a6.27,6.27,0,0,1,1.63-.73ZM164.3,214.32c-.48.2-1.26.4-1.06,1.38A1.55,1.55,0,0,0,165,217l.13,0a1.13,1.13,0,0,0,1.12-1.13v-.06c0-1.13-.82-1.37-2-1.41Z"/><path id="Path_21" data-name="Path 21" class="cls-12" d="M114.78,179.13l-.12,0c-.51-.51-1-.81-1.63-.14a87.33,87.33,0,0,1-27.37-17.3,84.74,84.74,0,0,1-18.14-20.42c-9.76-17.14-14.23-35.39-8.84-54.77,6-21.69,20.28-35.81,42.64-39.91,12.17-2.24,24.22-.44,33.39,9.57a6.52,6.52,0,0,1,2.53,4.68c-1.38,0-2.14-1-3.09-1.78-11.64-9.11-24.38-9-37.33-3.84a47.39,47.39,0,0,0-26.3,25.07,56,56,0,0,0-4.18,28.13A87.81,87.81,0,0,0,72.48,132c.47,1.25.7,2.65,2.27,3.07a5.75,5.75,0,0,0,2.73,4.48A30,30,0,0,0,90.2,154.82h0c3.42,5.68,9.34,8,14.71,11.13l.71.59v0a6.35,6.35,0,0,0,3.87,4.1c7.36,3.62,14.18,8.28,21.87,11.24h0c-.46,2.33,2.13,3.3,2.81,5.9C127.56,184.19,121.78,180.23,114.78,179.13Z"/><path id="Path_22" data-name="Path 22" class="cls-12" d="M234,159.11c-5.06,5.39-9.43,11.36-15.54,15.86a70.44,70.44,0,0,1-31.82,12.91c-8.57,1.33-17.21,1.49-25.82,2.13a43.68,43.68,0,0,0-12.46,2.3,1.9,1.9,0,0,1,1.53-2.14A119.19,119.19,0,0,1,164.24,187c.55.23,1.11.69,1.65.65a93.65,93.65,0,0,0,30.2-6.34c.75-.29.46-.66-.15-.85a51.26,51.26,0,0,0,21.49-13.85,65.59,65.59,0,0,0,17-30.22,81,81,0,0,0,.76-39.8C230.83,78,221.93,61.84,204.69,52.22c-12.19-6.79-25.39-9.42-39.39-4.51a27.69,27.69,0,0,0-15.41,12.65c-1.7,2.92-1.45,6.64-3.51,9.52-1.64-.66-1-1.85-.82-2.8a33.67,33.67,0,0,1,32.53-26.87c19.59-.42,35.09,7.53,47.63,22C237.6,76,242.77,92.11,243.83,110.08a106,106,0,0,1-1,24.72,56.78,56.78,0,0,1-4.54,14.84c-1.41,2.94-2.75,5.92-4.13,8.87l0,0-.75.39Z"/><path id="Path_23" data-name="Path 23" class="cls-13" d="M77.49,139.5A5.77,5.77,0,0,1,74.76,135a101.65,101.65,0,0,1-5.05-27.15c-.25-21.68,10.64-37.2,30.22-45.39,2.08-.87,3.93-2.56,6.41-2.4,4.38,1.63,9-.81,13.33.66l3.6.12h0c-.53,1.83-2,1.39-3.33,1.45A42.9,42.9,0,0,0,85.46,80.84c-6.82,9.51-8.4,20.39-7.29,32a60.44,60.44,0,0,0,7.2,24.31,66.89,66.89,0,0,0,22.28,23.74A91.2,91.2,0,0,0,119,167.82c-3.87,1.41-6.14-1.34-8.9-1.44a2.44,2.44,0,0,0-1.85-2A59.6,59.6,0,0,1,96,158.31c-1.94-1.15-3.21-3.38-5.77-3.51h0a7.35,7.35,0,0,0-.87-1.94c-3.12-3.66-7.1-6.6-8.72-11.48A2.86,2.86,0,0,0,77.49,139.5Z"/><path id="Path_24" data-name="Path 24" class="cls-12" d="M248.71,184.91A56.39,56.39,0,0,1,213,196.06l12.77-5.81a82.07,82.07,0,0,0,27.87-20.9,17,17,0,0,0,1.63-2.8A45.86,45.86,0,0,0,264,154.24a63.38,63.38,0,0,0,8.31-36.15,2,2,0,0,1,.56-1.42,31.13,31.13,0,0,1,3.77,13.54A59.81,59.81,0,0,1,268,164,67.32,67.32,0,0,1,248.71,184.91Z"/><path id="Path_25" data-name="Path 25" class="cls-13" d="M221.13,128c-.48.54-1,1.05-1.44,1.62-.66.84.24,3.1-1.57,2.6-1.34-.36-.26-2.2-.11-3.27a65.65,65.65,0,0,0-.63-25.33C212.9,85.05,191.61,70.1,172.3,74.91a20.23,20.23,0,0,0-16,15.83c-.26,1.16-.28,2.43-1.86,3.19a19.12,19.12,0,0,1,1.33-10.64,10.13,10.13,0,0,0,1.3-4.15l0,0,.77-1c.55-2.66,3.25-2.61,4.85-3.93,10.15-8.38,21.66-8.18,33.05-4.31A42.45,42.45,0,0,1,213.5,82.7a41.55,41.55,0,0,1,10.09,26.24A57.71,57.71,0,0,1,221.13,128Z"/><path id="Path_26" data-name="Path 26" class="cls-13" d="M246.64,149.54c.06-5.86,2.08-11.41,2.61-17.25a135.07,135.07,0,0,0,.05-24.71A98.87,98.87,0,0,0,242.07,81c-.84-2.19-2.17-4.19-2.93-6.51a26.88,26.88,0,0,1,9.06,10.92,82.51,82.51,0,0,1,8.59,42.67c-.42,6.42-1.45,12.79-2.32,19.19a8.14,8.14,0,0,1-1.39,2.51Z"/><path id="Path_27" data-name="Path 27" class="cls-12" d="M282.06,140.56c-.57-6.27.56-12.38.57-18.55a78.28,78.28,0,0,0-11.77-40.47c-1.34-2.28-1.78-5.07-4-6.89a1,1,0,0,1-.08-1.46A.93.93,0,0,1,267,73c.59-.44,1.06,0,1.59.34a49.53,49.53,0,0,1,17.61,24.06,47.68,47.68,0,0,1,3,25.41A42.19,42.19,0,0,1,282.06,140.56Z"/><path id="Path_28" data-name="Path 28" class="cls-12" d="M150.46,188.05c3-4.1,7.49-4.53,11.28-5.92,8.9-3.28,18.09-5.75,27-9A63.86,63.86,0,0,0,215,153.34a24.08,24.08,0,0,1,5.38-5.92,15.06,15.06,0,0,1-3,7.19C211,166.82,200.78,174.32,188,179.26c-9.91,3.85-20.38,4.63-30.51,7.16A19.36,19.36,0,0,1,150.46,188.05Z"/><path id="Path_29" data-name="Path 29" class="cls-12" d="M208.42,34.78a93,93,0,0,0-13-1.7A74.09,74.09,0,0,0,170,37,51,51,0,0,0,150.15,50.3c-.56.59-1.08,1.69-2,1.16-1.09-.62-.53-1.74-.12-2.6A32.42,32.42,0,0,1,161.36,34.2a47,47,0,0,1,33.34-6.28A24.07,24.07,0,0,1,208.42,34.78Z"/><path id="Path_30" data-name="Path 30" class="cls-12" d="M257.78,85.85c-5.48-10.07-10.84-20-19.57-27.85a65.62,65.62,0,0,0-30.13-15.82c5.7-3.16,20.19.1,28.83,6.17A45.65,45.65,0,0,1,257.78,85.85Z"/><path id="Path_31" data-name="Path 31" class="cls-12" d="M266.76,53.6a162.74,162.74,0,0,0-23.58-19.45,165.5,165.5,0,0,0-24.06-14.34c-.28-.12-.45-.49-1.05-1.19a66.49,66.49,0,0,1,23.66,7.81,212.5,212.5,0,0,1,18.35,11.25c2,1.28,2.8,4.25,5.79,4.06l3.4,5.76q-.37,3-.76,5.92Z"/><path id="Path_32" data-name="Path 32" class="cls-12" d="M246.64,149.55l6.44.26c.07.57.13,1.14.2,1.7-2.87,5.2-4.85,10.84-8.2,15.82a55,55,0,0,1-28.38,22.53c-.2.06-.46-.09-1.19-.24,3.27-2.45,6.4-4.56,9.26-7a59.15,59.15,0,0,0,20.48-32Z"/><path id="Path_33" data-name="Path 33" class="cls-13" d="M268.51,53.42q.39-3,.76-5.91c4.25,1,6,4.94,8.33,7.76a76,76,0,0,1,14.67,27.35,53,53,0,0,1,1.13,5.72,1.16,1.16,0,0,1-.72,1.48c-.79.22-1.05-.38-1.25-1-2.95-8.92-9-16-14-23.72-2-3.14-5.57-5.06-7.54-8.39A6.81,6.81,0,0,1,268.51,53.42Z"/><path id="Path_34" data-name="Path 34" class="cls-13" d="M241.45,198.82c.36-2.66,3.56-3.89,3.42-6.79l3.37-3.45c4.87-1.52,8.54-5.08,12.79-7.65a26.32,26.32,0,0,0,9.19-7.5,3.21,3.21,0,0,1,3.15-1.34c-1.15,4.61-5.16,6.91-7.88,10.09a84.16,84.16,0,0,1-8.86,8,11.17,11.17,0,0,1-5.86,2.86c-1.06.18-2.54,2.62-4,3.91A6.36,6.36,0,0,1,241.45,198.82Z"/><path id="Path_35" data-name="Path 35" class="cls-7" d="M196,180.5c.59.19.89.55.15.85a93.65,93.65,0,0,1-30.2,6.34c-.54,0-1.1-.43-1.66-.66,5.24-.94,10.5-1.78,15.72-2.86S190.62,181.73,196,180.5Z"/><path id="Path_36" data-name="Path 36" class="cls-14" d="M119.66,60.73c-4.38-1.47-9,1-13.32-.66a29,29,0,0,1,13.32-1.28Z"/><path id="Path_37" data-name="Path 37" class="cls-14" d="M127,60.79l-3.76.07h0l-1.53-1.92A8.39,8.39,0,0,1,127,60.79Z"/><path id="Path_38" data-name="Path 38" class="cls-10" d="M121.73,58.94l1.53,1.91-3.6-.12V58.79Z"/><path id="Path_39" data-name="Path 39" class="cls-12" d="M135.87,189.68c.1.59-.12.85-.54.68a1.35,1.35,0,0,1-.66-.75c-.13-.4.15-.74.57-.6S135.71,189.51,135.87,189.68Z"/><path id="Path_40" data-name="Path 40" class="cls-12" d="M148.31,192.32a1.9,1.9,0,0,1-1.41,1.49C146.08,192.08,147.19,192.2,148.31,192.32Z"/><path id="Path_41" data-name="Path 41" class="cls-12" d="M138,62.24l-.15.64-.3-.18.46-.45Z"/><path id="Path_42" data-name="Path 42" class="cls-10" d="M157.78,78.23l-.77,1Z"/><path id="Path_43" data-name="Path 43" class="cls-13" d="M221,130.57c0-.25.05-.51.07-.76a3,3,0,0,1,.12.54C221.14,130.42,221,130.49,221,130.57Z"/><path id="Path_44" data-name="Path 44" class="cls-6" d="M234,159.11l-.56-.26.75-.39A4.84,4.84,0,0,1,234,159.11Z"/><path id="Path_45" data-name="Path 45" class="cls-6" d="M113,179c.6-.67,1.12-.37,1.62.14Z"/><path id="Path_46" data-name="Path 46" class="cls-11" d="M68.89,47.54l.2-.23.15.15-.23.2Z"/><path id="Path_47" data-name="Path 47" class="cls-14" d="M135.74,77.81c-12.13-8.36-26.28-3.4-34.93,5.27a35.19,35.19,0,0,0-9.74,32.52,49.71,49.71,0,0,0,12.07,24.23c4.55,5.19,9.34,10.26,14.36,15.1,6.07,5.86,13.18,10.71,18.19,17.69a13.39,13.39,0,0,1,2.4,5.24,57.45,57.45,0,0,1-8.77-6.67,214.34,214.34,0,0,0-18.23-13.95A85.89,85.89,0,0,1,85.81,129a43.44,43.44,0,0,1-2.27-33.48c5.78-18.68,21.29-28.11,40.26-26.43A12.82,12.82,0,0,1,135.74,77.81Z"/><path id="Path_48" data-name="Path 48" class="cls-14" d="M144.33,180.16a26.61,26.61,0,0,1,11.61-10.59c10.33-6.08,21.89-10.15,31.2-17.87a45.56,45.56,0,0,0,17-29.29,53.44,53.44,0,0,0-.3-15.26c-1.78-12-6.82-22-19.51-26a17.42,17.42,0,0,0-9.39.29c-.71.17-1.79,1-2.15-.33-.26-.92.77-1.07,1.38-1.41a21.65,21.65,0,0,1,17.1-1,25.55,25.55,0,0,1,15.87,12.55,56.17,56.17,0,0,1,5.65,18,57.81,57.81,0,0,1-4.26,29.19c-4.87,12-14.24,18.73-25,24.56-10.44,5.65-22.34,7.64-32.67,13.53C148.92,177.67,147.51,179.75,144.33,180.16Z"/><path id="Path_49" data-name="Path 49" class="cls-14" d="M193,116.56a32.05,32.05,0,0,1-8.13,21.17,64.11,64.11,0,0,1-23.05,15.79A124.77,124.77,0,0,0,144.11,163c-.63.42-1.25,1.61-2.08.59-.68-.81.25-1.52.73-2.21,4.59-6.67,11.41-10.69,18-15,7.84-5.22,15.72-10.54,20.38-19A23.35,23.35,0,0,0,181.9,104a13.58,13.58,0,0,0-15.53-5.54c-.7.27-1.49.75-2,.07-.73-1,.24-1.57.87-2a15,15,0,0,1,14.28-1.78A20.31,20.31,0,0,1,193,114.36C193,115.09,193,115.82,193,116.56Z"/><path id="Path_50" data-name="Path 50" class="cls-14" d="M144,91.84c-7.25-4.65-14.93-6.84-23.06-2.44a18.07,18.07,0,0,0-9.31,14.81,28,28,0,0,0,4.91,18.11c5.29,8.32,12.7,15.12,17.39,23.87a16,16,0,0,1,3.25,8.79c-.05.6,0,1.37-.79,1.43a1.37,1.37,0,0,1-1.07-.74c-2.3-7.54-9.08-11.24-14.12-16.39-4.25-4.35-9.14-8.21-12.17-13.54-4.88-8.59-8.24-17.47-5-27.77,3.59-11.46,17.09-19.49,28.34-15.59a23.34,23.34,0,0,1,11.54,7.31A1.59,1.59,0,0,1,144,91.84Z"/><path id="Path_51" data-name="Path 51" class="cls-14" d="M149,108.55a19.48,19.48,0,0,0-5.8.39,9.49,9.49,0,0,0-4.3,14.78c2.25,2.87,3.7,6.42,7.05,8.43.62.37.89,1.42,1.2,2.21a1.63,1.63,0,0,1,0,1.35c-.51.69-1.15.21-1.53-.21-3.16-3.51-7.89-4.64-11.39-7.68a14.58,14.58,0,0,1-5.6-13.53,13.44,13.44,0,0,1,9.1-10.53c5.1-2.13,10.65.32,11.33,4.76Z"/><path id="Path_52" data-name="Path 52" class="cls-14" d="M149,140.32l7-4.83a19.71,19.71,0,0,0,8.41-20,8.19,8.19,0,0,0-8.65-7.7l-.38,0c-.84.06-2.1,1.06-2.44-.46-.27-1.19.86-2,1.75-2.58a9.86,9.86,0,0,1,12.81,3.3,20.44,20.44,0,0,1-5,28.47,18.79,18.79,0,0,1-2.19,1.33C157.33,139.53,153.75,141.89,149,140.32Z"/><path id="Path_53" data-name="Path 53" class="cls-6" d="M131.38,181.91c-7.69-3-14.52-7.62-21.87-11.25a6.35,6.35,0,0,1-3.87-4.1l4.27.86c5.91,3.83,12.66,6.24,18.18,10.76C129.39,179.26,130.93,180.08,131.38,181.91Z"/><path id="Path_54" data-name="Path 54" class="cls-14" d="M109.9,167.42l-4.27-.86v0l-.71-.59c-5.37-3.09-11.3-5.45-14.71-11.13,2.56.13,3.83,2.36,5.76,3.51a59.92,59.92,0,0,0,12.27,6.08,2.41,2.41,0,0,1,1.84,2Z"/><path id="Path_55" data-name="Path 55" class="cls-14" d="M149,108.52c.45.11,1,.14,1,.77a.32.32,0,0,1-.23.23c-.64,0-.66-.53-.77-1Z"/><path id="Path_56" data-name="Path 56" class="cls-11" d="M164.29,214.32c1.19,0,2,.28,2,1.4a1.12,1.12,0,0,1-1.06,1.19h-.06a1.55,1.55,0,0,1-1.9-1.09l0-.13C163,214.72,163.82,214.52,164.29,214.32Z"/><path id="Path_57" data-name="Path 57" class="cls-14" d="M77.48,139.5a2.88,2.88,0,0,1,3.14,1.9c1.61,4.87,5.6,7.82,8.71,11.47a7.44,7.44,0,0,1,.88,1.95A30.12,30.12,0,0,1,77.48,139.5Z"/><path id="Path_58" data-name="Path 58" class="cls-6" d="M104.91,165.93l.71.59Z"/></g></g></g></svg>