<svg xmlns="http://www.w3.org/2000/svg" viewBox="0 0 368.14 354.8"><defs><style>.cls-1{fill:#f2ebe2;}.cls-2{fill:#f3ece3;}.cls-3{fill:#e8dbcd;}.cls-4{fill:#e6d9c9;}.cls-5{fill:#dadbda;}.cls-6{fill:#f9f5ee;}.cls-7{fill:#c8bbaa;}.cls-8{fill:#fcf7f4;}.cls-9{fill:#fefefd;}.cls-10{fill:#fcfbf8;}.cls-11{fill:#e4dbcb;}.cls-12{fill:#d6c9b5;}.cls-13{fill:#e6ddce;}.cls-14{fill:#ebe5da;}</style></defs><g id="Layer_2" data-name="Layer 2"><g id="Layer_1-2" data-name="Layer 1"><path class="cls-1" d="M268,315.87c-6.82-.24-12.45-4.06-18.51-6.42-11.66-4.56-23.2-9.4-34.88-13.92-12.24-4.73-24.14-10.35-36.27-15.39-6.54-2.72-13.27-5-19.87-7.54-7.6-3-9.43-5.71-9.48-13.75q0-46.22-.05-92.45c0-3.17.14-6.35,3-8.58.16,1.68,1.31,2,2.75,2.27,2.25.43,4.46,1.12,6.66,1.76,6.91,2,13.53,5,20.69,6.11,2.44,1.52,5.29,1.46,8,2a2.92,2.92,0,0,0,3,1.94c2.85-.74,4.91,1.41,7.39,2.06,18,4.7,35.36,11.5,53,17.35a9.93,9.93,0,0,1,6.86,7.77c3.6,15.86,4,32.07,5.79,48.12.48,4.3-.66,9.08,2.9,12.71.69,4.34-1,8.49-1,12.78Q268,294.28,268,315.87ZM235.05,240c-1.38.63-5-1.43-4.74,1.94.31,4.45,4.76,4.36,8.07,4.93,2.08.36,3.78-.74,3.48-3.09C241.38,240,238.43,239.8,235.05,240Zm-29.38,18.94c3,.09,5.86-.12,5.79-3s-3-2.95-5.37-3-5.47,0-5.53,2.76C200.49,258.77,203.83,258.65,205.67,258.92Zm44,32c-.47-1.47-1.36-2.84-3-2.55-1.26.22-3.5.15-3.39,2.08s2.45,1.81,3.89,2.26C248.35,293.08,249.35,292.34,249.68,290.91Zm-8.89-38c1-.06,2.19-.23,1.93-1.89a2.32,2.32,0,0,0-2.5-2c-1.39-.06-2.22.57-2.14,2.06S239.28,252.89,240.79,252.91Z"/><path class="cls-1" d="M99,90q0-34.61,0-69.22c0-2.37-.77-5.28,3-5.78a12.2,12.2,0,0,1,4.32.82C115.51,20,124.77,23.94,134,28c13.51,6.07,27.2,11.75,40.24,18.78C180.09,49.9,186.59,52.7,187,61c.89,18,2.08,36,2.94,54,.32,6.8.07,13.63.06,20.44a16,16,0,0,0,2,8.51c.69,6.08-1.36,12-1,18.07a11,11,0,0,1-4.69-1.11c-6-2.86-11.17-7.64-18.27-7.94a2.78,2.78,0,0,0-1.7-2.78c-3.8-2-7.56-4.13-11.41-6.06C148,140.67,141,137.34,134.06,134c-4.3-4.87-10.59-6.17-16.06-9h0l-.92-1c-5.63,1.24-7.92-4.7-12.55-5.82-4.91-1.19-6.28-5.8-5.94-9.79C99.13,102.23,98.7,96.11,99,90Zm71.92,47.64c-.58-3.27-1.81-5.74-5.64-5.66-1.81,0-3.43.19-3.25,2.57.29,3.71,3.27,4.59,6.09,5.35C169.75,140.32,171.06,139.58,170.92,137.62ZM159.17,93.07c-1.18,0-2.13.39-1.95,1.68.21,1.49.75,2.93,2.57,3.11a1.73,1.73,0,0,0,2.11-2A2.62,2.62,0,0,0,159.17,93.07Z"/><path class="cls-2" d="M54,256.94c-6.67-4.47-10.42-11.57-15.56-17.4-9.12-10.35-17.93-21-26.77-31.54-3.46-4.15-6.29-8.83-10.64-12.19-1.45-1.11-1-2.73-1-4.16,0-29.09,0-58.17-.07-87.26,0-3,.52-4.92,4.05-4.4a93.33,93.33,0,0,0,13,13c7.72,9.63,17.85,16.93,25.57,26.61,3.59,4.5,7,8.2,7.75,14.64C53.08,176.09,54,198,55,220l1,10v20A15.37,15.37,0,0,0,54,256.94ZM22,133.8c-.65-2.94-3.71-3.68-6.5-4.42-1.64-.44-2.83,1-3.08,2.54-.31,2,4.24,5.94,6.58,5.72C20.82,137.47,22.12,136.57,22,133.8Zm14.23,82.35a2.14,2.14,0,0,0-2,2.33c0,1,.79,1.38,1.73,1.38,1.16,0,1.92-.48,2-1.73S37.66,216.16,36.22,216.15Z"/><path class="cls-3" d="M268,315.87q0-21.58,0-43.17c0-4.29,1.68-8.44,1-12.78a543.46,543.46,0,0,1,4.33-54.25c.6-4.44.25-10.27,4.85-13.08,7.43-4.54,15.19-8.63,23.79-10.73,0,19.14,0,38.28.09,57.42,0,3.24-.58,5.11-4.33,4.71-2.81-.3-3.58,1.43-3.78,4-.39,5.27,3.37,3.66,6.05,3.92a2.12,2.12,0,0,0,2,1q0,21.61.09,43.23c0,1.25.92,1.63,2,1.78-2.73,3.79-7.32,4.63-11,6.78-6.41,3.71-13.18,6.8-19.7,10.31C271.51,316,269.78,315.81,268,315.87Zm26.4-31.45c-3-.42-5-1.27-6.75.65a1.45,1.45,0,0,0,.75,2.4C291,288.45,292.05,286.3,294.4,284.42Z"/><path class="cls-4" d="M318,32c2.64.34,3,2.21,3,4.37,0,32.23.05,64.46-.05,96.69,0,5.46-3,7.68-11,9a52.82,52.82,0,0,0-6.34.59c-8.49,1.66-17.05,3-25.58,4.47,0-10.65-.09-21.31,0-32,0-2.74-1.32-6,2.42-7.87.95-.48.72-2.31-.4-3-2.51-1.56-2.06-4-2.06-6.25,0-6.65,0-13.31,0-20,2-.63,4-1.34,6.06-1.87,1.62-.42,2-1.45,1.91-2.92-.08-1.74-1.18-2-2.61-2.22-3.41-.56-6,.9-8.37,3-1.35-2.53-2.26-4.92,1.56-6.15,1.69-.54,1.43-2,1.44-3.33,0-5.48,0-11,0-16.45,0-2.62-.93-4.19-3.75-4s-4.49-.92-4.27-4c2.5-1.6,5.31-.79,8-1.07,2.87.2,4.92-3.05,8-1.9-.84,5.17,1.29,7.58,6.56,6.94,2.45-.29,3.69,1,4.45,3A6.26,6.26,0,0,0,296,51c-2.27,1.58-2,3.94-2,6.27q0,28,0,56c0,10.86,0,10.69,10.66,10.88,4,.07,5.46-.91,5.43-5.22-.2-28.31-.13-56.62-.14-84.94C312.42,32.52,315.28,32.6,318,32Zm-12.49,99a1.93,1.93,0,0,0-1.93-1.91c-1.4-.2-2.79,0-3.14,1.59-.22,1,.81,1.31,1.67,1.26C303.27,131.86,304.73,132.51,305.48,131Z"/><path class="cls-5" d="M27.65,347.52c4.1-1.21,8.42-1,12.52-1.33,13-1.18,26.14-1.52,39.22-2.24,56-3.11,112.08-2.13,168.13-1.83,21.37.12,42.74,1.78,64.1,2.93a235.45,235.45,0,0,1,29.73,3.35c-4.38.48-8.75,1.24-13.14,1.4-15.91.59-31.78,1.92-47.72,2.34-14.24.38-28.48,1.48-42.74,1.73-21.78.38-43.57,1.23-65.34.82-19.61-.37-39.23-.42-58.84-.95-18.88-.51-37.74-1.83-56.6-2.91-9.1-.52-18.17-1.29-27.25-2C29,348.8,28,349,27.65,347.52Z"/><path class="cls-3" d="M304,298c-1.06-.15-2-.53-2-1.78Q302,274.57,302,253c1.26-.06,2.61.07,3.41-1.25a1,1,0,0,0-.51-1.54,4.08,4.08,0,0,0-3.69.33,7.43,7.43,0,0,0-1.22,1.44c-2.68-.26-6.44,1.35-6.05-3.92.2-2.6,1-4.33,3.78-4,3.75.4,4.35-1.47,4.33-4.71-.13-19.14-.08-38.28-.09-57.42,7.53-3.62,15.19-7,23-9.84-.08,1,.22,2.3-.3,2.9-2,2.26-6.42,4.5.66,5.72.33.05.67,1.48.59,2.23-.4,3.67.66,5.76,4.85,5.13,2.3-.35,3.45.86,3.16,3.17-.22,1.75,1.08,4.28-2.06,4.71-2.42.34-3.75-.8-4-3.24-.07-.72-.47-1.2-1.9-.8V199c-3.55-1.56-6.8-.77-9.7,1.49-1.63,1.28-1.76,2.45.5,3.67,3.22,1.75,6.13-.57,9.18-.19q0,38.22.05,76.44c0,1.9-.77,4,1,5.64A105.22,105.22,0,0,1,304,298Z"/><path class="cls-3" d="M56,249.94V230c4.46-1.76,8.21-4.29,5.4-9.66-1.86-3.54-1.08-6.54-.43-10,1.57-8.47,2.31-17-.92-25.32,0-1.65.09-3.31.13-5,1.24-.28,2.33-.63.85-2,.67-5.73.12-11.66,2.92-17,5,.92,3.19-5.34,7-5.84-2.89-2.61-4,1.07-6,.85-.16-2.42.45-3.71,3.35-4.18A57.62,57.62,0,0,1,78,151c.86,2.9-2.57,2.63-3.68,4.31,2.61,1.17,5,.76,7.19.61,3.43-.22,4.84,1,4.54,4.5-.25,3,0,6-.07,8.94-.08,2.78.57,4.07,3.75,2.93s4.59.46,4.29,3.76c-.12,1.32,0,2.65,0,4v0l-1,.92c-2.48.77-4.73,1.67-3,5-3.48,1.84-4.22,4.69-4.13,8.53.28,12.1,0,24.21.14,36.31,0,3.31-.58,5.65-4.58,5.22-3-.32-4.15,1.42-4.47,4.05a40.13,40.13,0,0,0-5.92.19,3.28,3.28,0,0,0-2.84,3c-.07,2,1.71,2.42,3.09,2.55,2.71.26,5.66,1,7.68-1.84,4.75-.6,8,.49,7,6.3-.36,2.3,1.22,3.75,2.85,4.92,2,1.45,3-.64,4-1.7,1.62-1.66,3.57-1.52,5.56-1.52H118c-.12,2.66-2.65,4.77-1.75,7.66l-14.17.21a3.67,3.67,0,0,0-4.64-2.76c-10.42,2.16-20.78-1.31-31.18-.16-1.34.15-3.79.64-3.82-1.17C62.31,251.19,58.64,251.28,56,249.94Zm31.71-73a3.41,3.41,0,0,0-3.09-2.79,3,3,0,0,0-3.19,2.59c-.22,1.7,1.3,2.1,2.72,2.14S87.22,178.91,87.73,177Z"/><path class="cls-6" d="M190,2c.35-2.47,2.27-2,3.85-2q11.68,0,23.38,0c1.14,0,2.52-.09,3.37.48,7.31,4.95,16.21,4.62,24.21,7.27,3.31,1.09,7.1.58,9.17,4.23V37a2.86,2.86,0,0,1-2.67,1c-18.27-1-36.35,3-54.64,2.11-5.15-.25-9.8-2-14.67-3.1-1.07-3.51.06-7.62-4.15-10.29a3.92,3.92,0,0,1,1-6.55c2.09-.89,2.17-2.15,2.17-3.82,0-2.32,0-4.64,0-7-.07-3.54,1.07-5.78,5.17-5.41C187.7,4.12,189.66,4.5,190,2Zm20.38,4c-1.42.2-3.57-.36-3.9,1.82-.3,2,1.58,2.23,3.08,2.16,1.8-.08,4-.26,4.1-2.55C213.71,5.62,211.73,6.18,210.37,6Z"/><path class="cls-7" d="M116.22,259.6c-.9-2.89,1.63-5,1.75-7.66.38-1.6.72-3.21,1.16-4.8q4.92-17.53,9.86-35.06c4.19-14.93,7.9-30,12.21-44.87,2-6.9,5.2-13.64,4.91-21.12-.05-2.3-2.12-2.79-3.52-3.8-3.86-2.78-7.83-5.42-11.75-8.12,1-1.77,2.13-.48,3.22-.22,6.94,3.39,13.91,6.72,20.81,10.17,3.85,1.93,7.61,4,11.41,6.06A2.78,2.78,0,0,1,168,153c-5.37,1.6-11.34,1.19-16.08,4.86-2.82,2.23-3,5.41-3,8.58q0,46.23.05,92.45c-2.36,1.76-5.16,1.37-7.66,1C133,258.58,124.59,259.1,116.22,259.6Z"/><path class="cls-8" d="M17,113a93.33,93.33,0,0,1-13-13c.87-3,2.92-3.9,5.93-4,18.08-.89,36.21-.68,54.15-3.8C68.64,91.36,73.39,92,78,92q0,6.51,0,13v3c0,3.08.17,6.19-.07,9.26s0,6.52-3,8.77c-.81,0-1.63,0-2.43,0-1.2,0-2.33.21-2.45,1.74-.14,1.76,1,2.21,2.45,2.22H75c3.11,2.7,2.84,6.42,3,10-10.12.91-18.74-2.95-26.2-9.2-2.07-1.74-3.64-3-6.31-2.82s-6.2-.61-6.92-2.89c-1.07-3.37-3.48-4.57-5.85-6.24-5.23-3.69-5.81-7.14-2.17-12.38.81-1.17,2.3-2.79.69-3.86a9.39,9.39,0,0,0-5.63-1.35c-2.33.22-1.54,2.57-1.55,4.08,0,3.37-.69,5.94-4.89,5.81C18.17,111.1,17.48,112.05,17,113ZM37,103c-1.48.06-3.36-.08-3.47,1.88s1.76,2.06,3.26,2.07,3.2.17,3.12-2.1C39.81,103,38.3,103.07,37,103Z"/><path class="cls-3" d="M366,264.05c-2.52,4.66-7.8,5.33-11.76,7.78-6.4,4-13.46,6.86-20.25,10.21-.08-1.38-.08-2.85,1.51-3.31,6.81-2,7-7.18,6.48-12.83-.18-2,0-4,0-6,3.23-.29,6.95-1.08,6.59-4.85-.34-3.56-4.24-1.68-6.59-2.16V182.1c0-5.57,1.35-11.58-5-15l4.9-2.18c4.22-.7,8-2.56,12-4,4.46-1.65,9.16-5.33,14.13-.88l0,4c-.47-.14-1.11-.13-1.39-.45-2.17-2.36-5.05-2.06-7.36-1.13s-1.19,3.83-1.21,5.83q-.18,15.41,0,30.81c0,3.15-.68,5.2-4.37,4.94-4.49-.31-4.07,2.11-2.66,5,1.46,3.73,4.65,1.3,7,2,0,14.64.08,29.29,0,43.93,0,3.48.9,5.52,4.76,5.09C365.93,259.57,366,261.73,366,264.05Z"/><path class="cls-8" d="M78,140c-.17-3.59.1-7.31-3-10v-4c2.95-2.25,2.72-5.65,3-8.77S78,111,78,108c1.84-.48,5.2,1.27,5.26-1.31S80,105.28,78,105q0-6.5,0-13c7-.38,14.24,1.26,21-2-.3,6.13.13,12.25-.4,18.42-.34,4,1,8.6,5.94,9.79,4.63,1.12,6.92,7.06,12.55,5.82.31.33.62.65.92,1h0c2.8,5.13,8.47,6.25,12.84,9.19,3.92,2.7,7.89,5.34,11.75,8.12,1.4,1,3.47,1.5,3.51,3.8a46,46,0,0,1-6.44-.16c-3.91-.64-7.75,2.43-11.64.1-.44-2.78-2.64-2-4.31-2-7.9-.06-15.81.05-23.71-.05C92.47,143.85,85.28,141.67,78,140ZM88.85,97.9c-1.93.47-5.11-.91-5.25,2.09-.12,2.61,3.26,2.79,5,2.65s5.06.34,5.15-2.48C93.87,96.65,90.58,98.58,88.85,97.9Z"/><path class="cls-3" d="M341.94,259.94c0,2-.15,4,0,6,.51,5.65.33,10.86-6.48,12.83-1.59.46-1.59,1.93-1.51,3.31a9.22,9.22,0,0,1-7,4c-1.82-1.6-1-3.74-1-5.64q-.09-38.22-.05-76.44c0-1.66,0-3.32,0-5v-7.11c1.43-.4,1.83.08,1.9.8.25,2.44,1.58,3.58,4,3.24,3.14-.43,1.84-3,2.06-4.71.29-2.31-.86-3.52-3.16-3.17-4.19.63-5.25-1.46-4.85-5.13.08-.75-.26-2.18-.59-2.23-7.08-1.22-2.62-3.46-.66-5.72.52-.6.22-1.91.3-2.9,4.28-1,7.35-4.86,12-5,6.34,3.47,5,9.48,5,15v70.83c-2.38.36-4,1.65-3.88,4.13C338.15,259.34,340.19,259.58,341.94,259.94Z"/><path class="cls-6" d="M190,2c-.33,2.48-2.29,2.1-3.83,2-4.1-.37-5.24,1.87-5.17,5.41,0,2.32,0,4.64,0,7,0,1.67-.08,2.93-2.17,3.82a3.92,3.92,0,0,0-1,6.55c4.21,2.67,3.08,6.78,4.15,10.29-6.42-1.91-13.92.71-19.53-4.9a4.46,4.46,0,0,0-5.18-.38,4,4,0,0,1-3.37-.27c-4.88-1.93-10.24-2.41-14.72-5.66-1.84-1.33-5-2.23-5.18,2.18-9.24-4-18.5-8-27.69-12.18A12.2,12.2,0,0,0,102,15c0-1.66.33-3,2.42-2.94a60,60,0,0,0,18.11-2.27C134.19,6.51,146.32,7.59,158,4.61c6.42-1.64,13.16-.06,19.74-1.45C181.66,2.32,185.8,1.42,190,2Z"/><path class="cls-3" d="M350.94,209c-1.41-2.88-1.83-5.3,2.66-5,3.69.26,4.4-1.79,4.37-4.94q-.14-15.4,0-30.81c0-2-1.23-4.84,1.21-5.83s5.19-1.23,7.36,1.13c.28.32.92.31,1.39.45q0,47.17,0,94.34c0,2.12.44,4.44-2,5.74.05-2.32-.06-4.48-3.34-4.11-3.86.43-4.79-1.61-4.76-5.09.11-14.64,0-29.29,0-43.93C356.72,206.26,353.74,207.92,350.94,209Z"/><path class="cls-6" d="M254,37V12c8.74,1.81,17.38,3.69,25.85,6.88,6.15,2.31,13,3.24,19.43,5,5.33,1.49,10.61,3.16,15.93,4.67,1.79.5,3.06,1.25,2.79,3.36-2.69.64-5.55.56-8.06,1.95-8.18-.44-16,1.52-24,3.14-3.1-1.15-5.15,2.1-8,1.9.28-3-1.77-2.8-3.84-3C267.33,35.37,260.71,37.23,254,37Zm14.38-9a2.4,2.4,0,0,0,2.38-2.11c.18-1.64-1.05-1.81-2.23-1.8-1.52,0-3.17.16-3.1,2.16C265.44,27.52,266.69,27.92,268.35,28Z"/><path class="cls-6" d="M368,160c-5-4.45-9.67-.77-14.13.88-4,1.47-7.78,3.33-12,4-1.4-1.44-3-.94-4.63-.5-4.29,1.19-8.52,2.7-12.87,3.53-3.6.69-6.38,3.32-9.75,3.89-3.9.64-7.78,1.38-11.64,2.17-1.91-6.57-.63-13.31-1-20,12.13-1,24.25-2.06,36.38-3.13,1.31-.11,3.2.63,3.39-1.75,7.43,1.62,14.91,3,22.26,5C366.41,154.75,368.78,156.56,368,160Zm-39.07,2c1.13-.11,2.61.21,2.75-1.36s-1.28-1.59-2.41-1.61-2.58.21-2.75,1.52C326.27,162.34,327.94,161.77,328.91,162Z"/><path class="cls-7" d="M341.72,149.12c-.19,2.38-2.08,1.64-3.39,1.75C326.2,151.94,314.08,153,302,154c-2.7.15-5.5-.64-8.08.77-3.7.54-7.58-.72-11.16,1.08-15.94.08-31.73,2.46-47.61,3.48-4.36.28-9-.33-13.22,1.44-5.25.18-10.53,0-15.73,1a1.6,1.6,0,0,1,1.42-1.71c5.51-1,11-2,16.52-3.08,10-1.94,20-3.93,29.94-5.89A164.57,164.57,0,0,0,278,147c8.53-1.46,17.09-2.81,25.58-4.47a52.82,52.82,0,0,1,6.34-.59C320.41,144.79,331,147.09,341.72,149.12Z"/><path class="cls-3" d="M56,249.94c2.62,1.34,6.29,1.25,6.39,5.78,0,1.81,2.48,1.32,3.82,1.17,10.4-1.15,20.76,2.32,31.18.16a3.67,3.67,0,0,1,4.64,2.76q-20.67.06-41.33.1c-1.3,0-2.7.25-3.71-.94,0-2.06-1.52-2.05-3-2h0A15.37,15.37,0,0,1,56,249.94Z"/><path class="cls-2" d="M54,256.94c1.46,0,2.93,0,3,2C55.58,258.94,54.11,259,54,256.94Z"/><path class="cls-9" d="M303,174c3.86-.79,7.74-1.53,11.64-2.17,3.37-.57,6.15-3.2,9.75-3.89,4.35-.83,8.58-2.34,12.87-3.53,1.59-.44,3.23-.94,4.63.5l-4.9,2.18c-4.65.11-7.72,4-12,5-7.84,2.89-15.5,6.22-23,9.84-8.6,2.1-16.36,6.19-23.79,10.73-4.6,2.81-4.25,8.64-4.85,13.08A543.46,543.46,0,0,0,269,259.92c-3.56-3.63-2.42-8.41-2.9-12.71-1.83-16.05-2.19-32.26-5.79-48.12a9.93,9.93,0,0,0-6.86-7.77c-17.65-5.85-35-12.65-53-17.35-2.48-.65-4.54-2.8-7.39-2.06-.14-2-1.59-1.95-3-1.94-2.69-.55-5.54-.49-8-2,.52-2.83,2.61-2,4.31-1.73,4.21.66,8.24,2.56,12.28,3.2,10.91,1.74,21.16,6.68,32.18,7.07,5.51.19,9.74,4.22,15.2,3.46,3.14.07,6.28-.2,9.37.86,8.19,2.82,16.18-.73,24.26-1.21,1.88-.11,5.29-.64,6.36-3.64l5,1A62.83,62.83,0,0,0,303,174Z"/><path class="cls-10" d="M246,180c-5.46.76-9.69-3.27-15.2-3.46-11-.39-21.27-5.33-32.18-7.07-4-.64-8.07-2.54-12.28-3.2-1.7-.26-3.79-1.1-4.31,1.73-7.16-1.16-13.78-4.13-20.69-6.11-2.2-.64-4.41-1.33-6.66-1.76-1.44-.27-2.59-.59-2.75-2.27,4.74-3.67,10.71-3.26,16.08-4.86,7.1.3,12.28,5.08,18.27,7.94a11,11,0,0,0,4.69,1.11c5.11,2.47,10.13-1,15.21-.23,5.2-1,10.48-.83,15.73-1,.57,1.52,3.28.95,3.1,3.19-1.68.16-4.44-.49-4.37,1.7s2.85.94,4.4,1.3a4.41,4.41,0,0,0,1,0c2.73,4.5,6.82,5.33,11.79,5.11C246,171.71,246,172,246,180Z"/><path class="cls-4" d="M235.05,240c3.38-.18,6.33,0,6.81,3.78.3,2.35-1.4,3.45-3.48,3.09-3.31-.57-7.76-.48-8.07-4.93C230.07,238.55,233.67,240.61,235.05,240Z"/><path class="cls-8" d="M205.67,258.92c-1.84-.27-5.18-.15-5.11-3.24.06-2.74,3.13-2.77,5.53-2.76s5.3.1,5.37,3S208.65,259,205.67,258.92Z"/><path class="cls-11" d="M249.68,290.91c-.33,1.43-1.33,2.17-2.52,1.79-1.44-.45-3.78-.2-3.89-2.26s2.13-1.86,3.39-2.08C248.32,288.07,249.21,289.44,249.68,290.91Z"/><path class="cls-4" d="M240.79,252.91c-1.51,0-2.63-.23-2.71-1.8s.75-2.12,2.14-2.06a2.32,2.32,0,0,1,2.5,2C243,252.68,241.76,252.85,240.79,252.91Z"/><path class="cls-10" d="M190,170c1.43,0,2.88-.06,3,1.94A2.92,2.92,0,0,1,190,170Z"/><path class="cls-4" d="M206.15,161.78c-5.08-.78-10.1,2.7-15.21.23-.33-6.06,1.72-12,1-18.07.7-9.72,1.16-19.46,2.15-29.14,1.79-17.39,3.95-34.74,5.85-52.12.74-6.8,3-9.23,9.4-10.82,6.88-1.72,13.74-3.38,20.75-4.56,8-1.35,15.74-3.69,23.83-4.35Q254,97,254,151.1c-10,2-20,4-29.94,5.89-5.5,1.07-11,2.07-16.52,3.08A1.6,1.6,0,0,0,206.15,161.78ZM230,121.83c2.5-1.46,7.08.25,7.58-4,.34-2.83-2.72-2.82-4.79-2.77-2.91.07-5.88.84-6.36,4.15C226.23,120.73,228.07,121.9,230,121.83ZM222.92,68c1.52-.06,3.32.11,3.58-1.82.23-1.73-1.27-2.1-2.67-2.09a3.14,3.14,0,0,0-3.29,2.46C220.21,68.38,222,67.76,222.92,68Zm18.62,20c-1.55,0-3,.26-3.32,2.1-.26,1.61.95,1.82,2.17,1.83,1.55,0,3-.25,3.33-2.08C244,88.27,242.75,88.08,241.54,88ZM245.86,125c0-1.52-1-2-2.23-1.87s-3.2.49-3.34,2.24c-.15,2,1.66,1.55,2.86,1.6C244.53,127,245.82,126.8,245.86,125Zm-36.67,15.1c-.08,1.38.73,1.79,1.85,1.83,1.38,0,2.76,0,2.82-1.89a1.66,1.66,0,0,0-1.74-1.92A2.52,2.52,0,0,0,209.19,140.07Z"/><path class="cls-9" d="M254,43c-8.09.66-15.87,3-23.83,4.35-7,1.18-13.87,2.84-20.75,4.56-6.4,1.59-8.66,4-9.4,10.82-1.9,17.38-4.06,34.73-5.85,52.12-1,9.68-1.45,19.42-2.15,29.14a16,16,0,0,1-2-8.51c0-6.81.26-13.64-.06-20.44-.86-18-2.05-36-2.94-54-.41-8.33-6.91-11.13-12.75-14.27-13-7-26.73-12.71-40.24-18.78.16-4.41,3.34-3.51,5.18-2.18,4.48,3.25,9.84,3.73,14.72,5.66a4,4,0,0,0,3.37.27,4.46,4.46,0,0,1,5.18.38c5.61,5.61,13.11,3,19.53,4.9,4.87,1.09,9.52,2.85,14.67,3.1C215,41,233,37.05,251.3,38A2.86,2.86,0,0,0,254,37c6.74.23,13.36-1.63,20.13-1,2.07.19,4.12,0,3.84,3-2.67.28-5.48-.53-8,1.07A77.83,77.83,0,0,0,254,43Z"/><path class="cls-4" d="M170.92,137.62c.14,2-1.17,2.7-2.8,2.26-2.82-.76-5.8-1.64-6.09-5.35-.18-2.38,1.44-2.53,3.25-2.57C169.11,131.88,170.34,134.35,170.92,137.62Z"/><path class="cls-12" d="M130.84,134.17c-4.37-2.94-10-4.06-12.84-9.19,5.47,2.8,11.76,4.1,16.06,9C133,133.69,131.8,132.4,130.84,134.17Z"/><path class="cls-13" d="M159.17,93.07a2.62,2.62,0,0,1,2.73,2.76,1.73,1.73,0,0,1-2.11,2c-1.82-.18-2.36-1.62-2.57-3.11C157,93.46,158,93.1,159.17,93.07Z"/><path class="cls-12" d="M118,125c-.3-.33-.61-.65-.92-1C117.4,124.34,117.71,124.66,118,125Z"/><path class="cls-9" d="M78,140c7.26,1.69,14.45,3.87,22,4,7.9.1,15.81,0,23.71.05,1.67,0,3.87-.75,4.31,2-5,.65-10.07,1.74-15.13,1.85-11.7.26-23.24,2.16-34.87,3.1a57.62,57.62,0,0,0-9.7.8c-2.9.47-3.51,1.76-3.35,4.18-1.59,1.41-.74,3.31-1,5-2.8,5.36-2.25,11.29-2.92,17a1.8,1.8,0,0,0-.85,2c0,1.65-.09,3.31-.13,5a2.8,2.8,0,0,0-1,2.64c.34,8.72-2.63,17.17-2.15,25.94A9.38,9.38,0,0,1,55,220c-1.07-21.94-2-43.88-4.67-65.73-.8-6.44-4.16-10.14-7.75-14.64-7.72-9.68-17.85-17-25.57-26.61.44-.94,1.13-1.89,2.15-1.86,4.2.13,4.87-2.44,4.89-5.81,0-1.51-.78-3.86,1.55-4.08a9.39,9.39,0,0,1,5.63,1.35c1.61,1.07.12,2.69-.69,3.86-3.64,5.24-3.06,8.69,2.17,12.38,2.37,1.67,4.78,2.87,5.85,6.24.72,2.28,4.11,3.1,6.92,2.89s4.24,1.08,6.31,2.82C59.28,137,67.9,140.89,78,140Z"/><path class="cls-3" d="M55,220a9.38,9.38,0,0,0,1.88-6.42c-.48-8.77,2.49-17.22,2.15-25.94a2.8,2.8,0,0,1,1-2.64c3.23,8.33,2.49,16.85.92,25.32-.65,3.46-1.43,6.46.43,10,2.81,5.37-.94,7.9-5.4,9.66Z"/><path class="cls-3" d="M22,133.8c.13,2.77-1.17,3.67-3,3.84-2.34.22-6.89-3.7-6.58-5.72.25-1.58,1.44-3,3.08-2.54C18.28,130.12,21.34,130.86,22,133.8Z"/><path class="cls-10" d="M36.22,216.15c1.44,0,1.77.86,1.71,2s-.81,1.72-2,1.73c-.94,0-1.7-.42-1.73-1.38A2.14,2.14,0,0,1,36.22,216.15Z"/><path class="cls-1" d="M294.4,284.42c-2.35,1.88-3.4,4-6,3.05a1.45,1.45,0,0,1-.75-2.4C289.38,283.15,291.41,284,294.4,284.42Z"/><path class="cls-1" d="M300,251.94a7.43,7.43,0,0,1,1.22-1.44,4.08,4.08,0,0,1,3.69-.33,1,1,0,0,1,.51,1.54c-.8,1.32-2.15,1.19-3.41,1.25A2.12,2.12,0,0,1,300,251.94Z"/><path class="cls-4" d="M254,43A77.83,77.83,0,0,1,270,40c-.22,3.08,1.41,4.15,4.27,4s3.77,1.43,3.75,4c-.06,5.48,0,11,0,16.45,0,1.29.25,2.79-1.44,3.33-3.82,1.23-2.91,3.62-1.56,6.15.36,1.82.65,3.68,3,4,0,6.66,0,13.32,0,20,0,2.29-.45,4.69,2.06,6.25,1.12.7,1.35,2.53.4,3-3.74,1.86-2.39,5.13-2.42,7.87-.12,10.65,0,21.31,0,32a164.57,164.57,0,0,1-24,4.06Q254,97,254,43Z"/><path class="cls-4" d="M286,37.05c7.91-1.62,15.77-3.58,24-3.14,0,28.32-.06,56.63.14,84.94,0,4.31-1.41,5.29-5.43,5.22-10.66-.19-10.66,0-10.66-10.88q0-28,0-56c0-2.33-.23-4.69,2-6.27,1.14,0,2.27,0,3.41,0s2.33-.2,2.46-1.72c.15-1.77-1-2.21-2.44-2.22H297c-.76-2.06-2-3.34-4.45-3C287.25,44.63,285.12,42.22,286,37.05Z"/><path class="cls-12" d="M278,78c-2.36-.3-2.65-2.16-3-4,2.38-2.13,5-3.59,8.37-3,1.43.24,2.53.48,2.61,2.22.06,1.47-.29,2.5-1.91,2.92C282,76.64,280,77.35,278,78Z"/><path class="cls-1" d="M297,47h2.43c1.47,0,2.59.45,2.44,2.22-.13,1.52-1.28,1.69-2.46,1.72s-2.27,0-3.41,0A6.33,6.33,0,0,1,297,47Z"/><path class="cls-12" d="M305.48,131c-.75,1.51-2.21.86-3.4.94-.86.05-1.89-.28-1.67-1.26.35-1.54,1.74-1.79,3.14-1.59A1.93,1.93,0,0,1,305.48,131Z"/><path class="cls-2" d="M326,199c0,1.65,0,3.31,0,5-3.05-.38-6,1.94-9.18.19-2.26-1.22-2.13-2.39-.5-3.67C319.15,198.18,322.4,197.39,326,199Z"/><path class="cls-3" d="M78,151c11.63-.94,23.17-2.84,34.87-3.1C118,147.77,123,146.68,128,146c3.89,2.33,7.73-.74,11.64-.1a46,46,0,0,0,6.44.16c.3,7.48-2.9,14.22-4.9,21.12-4.31,14.9-8,29.94-12.21,44.87q-4.92,17.53-9.86,35.06c-.44,1.59-.78,3.2-1.16,4.8H98.5c-2,0-3.94-.14-5.56,1.52-1,1.06-2,3.15-4,1.7-1.63-1.17-3.21-2.62-2.85-4.92.92-5.81-2.28-6.9-7-6.3.15-1.73-1.4-2.6-2-3.95.32-2.63,1.44-4.37,4.47-4.05,4,.43,4.61-1.91,4.58-5.22-.1-12.1.14-24.21-.14-36.31-.09-3.84.65-6.69,4.13-8.53,2.07,1.42,4.44,1,6.73,1.07s4.58-.63,4.92-3.12-2.15-2.5-3.81-3c-1.24-.38-2.55-.56-3.84-.82,0-1.33-.13-2.66,0-4,.3-3.3-1.05-4.92-4.29-3.76s-3.83-.15-3.75-2.93c.09-3-.18-6,.07-8.94.3-3.53-1.11-4.72-4.54-4.5-2.23.15-4.58.56-7.19-.61C75.45,153.61,78.88,153.88,78,151Zm35.8,69.86c.07-1.65-1.1-1.85-2.31-1.84s-3-.43-3.26,1.39c-.22,1.58,1,2.36,2.52,2.45A2.63,2.63,0,0,0,113.82,220.84Z"/><path class="cls-10" d="M94.05,180c1.29.26,2.6.44,3.84.82,1.66.5,4.14.6,3.81,3S99.16,187,96.78,187s-4.66.35-6.73-1.07c-1.75-3.31.5-4.21,3-5l1-.92Z"/><path class="cls-12" d="M77,240c.61,1.35,2.16,2.22,2,3.95-2,2.84-5,2.1-7.68,1.84-1.38-.13-3.16-.59-3.09-2.55a3.28,3.28,0,0,1,2.84-3A40.13,40.13,0,0,1,77,240Z"/><path class="cls-6" d="M87.73,177c-.51,1.94-2,2-3.56,1.94s-2.94-.44-2.72-2.14a3,3,0,0,1,3.19-2.59A3.41,3.41,0,0,1,87.73,177Z"/><path class="cls-3" d="M64,161c.26-1.68-.59-3.58,1-5,2,.22,3.07-3.46,6-.85C67.16,155.61,69,161.87,64,161Z"/><path class="cls-14" d="M60.2,180a1.8,1.8,0,0,1,.85-2C62.53,179.38,61.44,179.73,60.2,180Z"/><path class="cls-3" d="M94.05,180l-1,.92Z"/><path class="cls-1" d="M210.37,6c1.36.2,3.34-.36,3.28,1.43-.07,2.29-2.3,2.47-4.1,2.55-1.5.07-3.38-.14-3.08-2.16C206.8,5.62,209,6.18,210.37,6Z"/><path class="cls-2" d="M37,103c1.32.07,2.83,0,2.9,1.85.08,2.27-1.64,2.12-3.12,2.1s-3.38,0-3.26-2.07S35.49,103.06,37,103Z"/><path class="cls-1" d="M75,126v4H72.58c-1.48,0-2.59-.46-2.45-2.22.12-1.53,1.25-1.7,2.45-1.74C73.38,126,74.2,126,75,126Z"/><path class="cls-14" d="M78,105c1.93.28,5.33-.89,5.27,1.65s-3.42.83-5.26,1.31C78,107,78,106,78,105Z"/><path class="cls-12" d="M341.94,259.94c-1.75-.36-3.79-.6-3.88-2.88-.1-2.48,1.5-3.77,3.88-4.13,2.35.48,6.25-1.4,6.59,2.16C348.89,258.86,345.17,259.65,341.94,259.94Z"/><path class="cls-12" d="M350.94,209c2.8-1,5.78-2.7,7,2C355.59,210.26,352.4,212.69,350.94,209Z"/><path class="cls-14" d="M88.85,97.9c1.73.68,5-1.25,4.91,2.26-.09,2.82-3.41,2.34-5.15,2.48s-5.13,0-5-2.65C83.74,97,86.92,98.37,88.85,97.9Z"/><path class="cls-14" d="M268.35,28c-1.66,0-2.91-.44-3-1.75-.07-2,1.58-2.15,3.1-2.16,1.18,0,2.41.16,2.23,1.8A2.4,2.4,0,0,1,268.35,28Z"/><path class="cls-8" d="M303,174a62.83,62.83,0,0,1-12,3c3.29-3.16,3.2-7.18,3-11.29-.15-3.63-.08-7.27-.11-10.9,2.58-1.41,5.38-.62,8.08-.77C302.33,160.65,301.05,167.39,303,174Z"/><path class="cls-14" d="M328.91,162c-1-.21-2.64.36-2.41-1.45.17-1.31,1.54-1.54,2.75-1.52s2.57,0,2.41,1.61S330,161.87,328.91,162Z"/><path class="cls-8" d="M246,180c0-8,0-8.25-8.21-7.9-5,.22-9.06-.61-11.79-5.11,0-1.1.18-2.28-1-3,.18-2.24-2.53-1.67-3.1-3.19,4.25-1.77,8.86-1.16,13.22-1.44,15.88-1,31.67-3.4,47.61-3.48,2.61-.08,3.35,1.28,3.29,3.73-.13,5.46,0,10.93,0,16.39-1.07,3-4.48,3.53-6.36,3.64-8.08.48-16.07,4-24.26,1.21C252.25,179.76,249.11,180,246,180Z"/><path class="cls-6" d="M286,176c0-5.46-.09-10.93,0-16.39.06-2.45-.68-3.81-3.29-3.73,3.58-1.8,7.46-.54,11.16-1.08,0,3.63,0,7.27.11,10.9.17,4.11.26,8.13-3,11.29Z"/><path class="cls-1" d="M225,164c1.17.71,1,1.89,1,3a4.41,4.41,0,0,1-1,0c-1.55-.36-4.32,1-4.4-1.3S223.3,164.12,225,164Z"/><path class="cls-2" d="M230,121.83c-2,.07-3.8-1.1-3.57-2.64.48-3.31,3.45-4.08,6.36-4.15,2.07-.05,5.13-.06,4.79,2.77C237.11,122.08,232.53,120.37,230,121.83Z"/><path class="cls-12" d="M222.92,68c-.94-.23-2.71.39-2.38-1.45a3.14,3.14,0,0,1,3.29-2.46c1.4,0,2.9.36,2.67,2.09C226.24,68.1,224.44,67.93,222.92,68Z"/><path class="cls-12" d="M241.54,88c1.21,0,2.44.24,2.18,1.85-.3,1.83-1.78,2.1-3.33,2.08-1.22,0-2.43-.22-2.17-1.83C238.51,88.29,240,88,241.54,88Z"/><path class="cls-1" d="M245.86,125c0,1.83-1.33,2-2.71,2-1.2,0-3,.37-2.86-1.6.14-1.75,1.92-2,3.34-2.24S245.86,123.45,245.86,125Z"/><path class="cls-12" d="M209.19,140.07a2.52,2.52,0,0,1,2.93-2,1.66,1.66,0,0,1,1.74,1.92c-.06,1.91-1.44,1.94-2.82,1.89C209.92,141.86,209.11,141.45,209.19,140.07Z"/><path class="cls-8" d="M113.82,220.84a2.63,2.63,0,0,1-3,2c-1.51-.09-2.74-.87-2.52-2.45.27-1.82,2-1.38,3.26-1.39S113.89,219.19,113.82,220.84Z"/></g></g></svg>